<?xml version="1.0" ?><svg enable-background="new 0 0 64 64" height="64px" version="1.1" viewBox="0 0 64 64" width="64px" xml:space="preserve" xmlns="http://www.w3.org/2000/svg" xmlns:xlink="http://www.w3.org/1999/xlink"><g id="Layer_1"><g><circle cx="31.833" cy="32" fill="#77B3D4" r="32"/></g><g opacity="0.2"><path d="M52,48c0,1.105-0.895,2-2,2H14c-1.105,0-2-0.895-2-2l0,0c0-1.105,0.895-2,2-2h36    C51.105,46,52,46.895,52,48L52,48z" fill="#231F20"/></g><g><path d="M52,46c0,1.105-0.895,2-2,2H14c-1.105,0-2-0.895-2-2l0,0c0-1.105,0.895-2,2-2h36    C51.105,44,52,44.895,52,46L52,46z" fill="#E0995E"/></g><g><path d="M23,20h-4c-1.657,0-3,1.343-3,3v17v1v3h3h4h3v-3v-1V23C26,21.343,24.657,20,23,20z" fill="#C75C5C"/></g><g><path d="M45,16h-4c-1.657,0-3,1.343-3,3v21v1v3h3h4h3v-3v-1V19C48,17.343,46.657,16,45,16z" fill="#E0E0D1"/></g><g><rect fill="#E0995E" height="3" width="10" x="16" y="24"/></g><g><rect fill="#E0995E" height="3" width="10" x="16" y="37"/></g><g><rect fill="#FFFFFF" height="3" width="10" x="38" y="37"/></g><g><rect fill="#FFFFFF" height="3" width="10" x="38" y="20"/></g><g><g opacity="0.2"><path d="M40,40V16.184c-1.163,0.413-2,1.512-2,2.816v21v1v3h2v-3V40z" fill="#231F20"/></g><g opacity="0.2"><path d="M26,40V23c0-1.304-0.837-2.403-2-2.816V40v1v3h2v-3V40z" fill="#231F20"/></g></g><g><path d="M35,12h-6c-1.657,0-3,1.343-3,3v25v1v3h3h6h3v-3v-1V15C38,13.343,36.657,12,35,12z" fill="#4F5D73"/></g><g><rect fill="#76C2AF" height="3" width="12" x="26" y="16"/></g><g><rect fill="#76C2AF" height="3" width="12" x="26" y="37"/></g></g><g id="Layer_2"/></svg>